<?xml version="1.0" encoding="UTF-8" standalone="no"?>
<svg
   enable-background="new 0 0 100 100"
   viewBox="0 0 100 100"
   version="1.1"
   id="svg27"
   sodipodi:docname="discord(1).svg"
   inkscape:version="1.2 (56b05e47e7, 2022-06-09, custom)"
   xmlns:inkscape="http://www.inkscape.org/namespaces/inkscape"
   xmlns:sodipodi="http://sodipodi.sourceforge.net/DTD/sodipodi-0.dtd"
   xmlns="http://www.w3.org/2000/svg"
   xmlns:svg="http://www.w3.org/2000/svg">
  <defs
     id="defs31" />
  <sodipodi:namedview
     id="namedview29"
     pagecolor="#ffffff"
     bordercolor="#000000"
     borderopacity="0.25"
     inkscape:showpageshadow="2"
     inkscape:pageopacity="0.0"
     inkscape:pagecheckerboard="0"
     inkscape:deskcolor="#d1d1d1"
     showgrid="false"
     inkscape:zoom="8.13"
     inkscape:cx="50.061501"
     inkscape:cy="50"
     inkscape:window-width="1920"
     inkscape:window-height="1016"
     inkscape:window-x="1920"
     inkscape:window-y="147"
     inkscape:window-maximized="1"
     inkscape:current-layer="svg27" />
  <path
     d="M85.778,24.561c-11.641-8.71-22.793-8.466-22.793-8.466s-1.14,1.302-1.14,1.302c13.839,4.152,20.27,10.257,20.27,10.257   c-19.799-10.901-45.019-10.823-65.613,0c0,0,6.675-6.431,21.328-10.583c0,0-0.814-0.977-0.814-0.977s-11.071-0.244-22.793,8.466   c0,0-11.722,21.084-11.722,47.052c0,0,6.838,11.722,24.829,12.292c0,0,3.012-3.582,5.454-6.675   c-10.339-3.093-14.246-9.524-14.246-9.524c6.495,4.064,13.063,6.608,21.247,8.222c13.316,2.741,29.879-0.077,42.249-8.222   c0,0-4.07,6.594-14.734,9.606c2.442,3.012,5.373,6.512,5.373,6.512C90.662,83.254,97.5,71.532,97.5,71.613   C97.5,45.645,85.778,24.561,85.778,24.561z M34.818,64.043c-4.559,0-8.303-3.989-8.303-8.955c0.333-11.892,16.357-11.855,16.607,0   C43.121,60.054,39.458,64.043,34.818,64.043z M64.531,64.043c-4.559,0-8.303-3.989-8.303-8.955c0.366-11.869,16.19-11.874,16.607,0   C72.834,60.054,69.171,64.043,64.531,64.043z"
     id="path25" />
  <path
     style="fill:#ffffff;stroke-width:0.123001"
     d="M 25.707257,83.749171 C 16.301077,83.04586 7.9450724,78.871295 3.23004,72.519811 l -0.7226229,-0.973425 0.07368,-1.917104 C 2.8250114,63.282779 3.3805044,58.429615 4.4993887,52.869784 6.3197251,43.824376 9.347803,34.735501 13.189154,26.787166 l 1.05339,-2.179623 1.611815,-1.094623 C 22.14307,19.242102 28.877427,16.796575 36.05615,16.176801 l 0.8778,-0.07578 0.386618,0.467327 0.38662,0.467327 -0.403409,0.110746 c -1.325628,0.363915 -5.362558,1.75777 -6.986094,2.41213 -3.641464,1.46768 -7.698878,3.577147 -10.452986,5.434552 -1.622628,1.09432 -3.520021,2.595349 -3.351633,2.651479 0.07014,0.02338 0.857184,-0.323845 1.748994,-0.771608 13.538792,-6.797602 30.019986,-8.970881 45.083573,-5.944908 5.90823,1.186845 11.889072,3.251662 16.901694,5.835117 0.974898,0.502452 1.803554,0.882539 1.841457,0.844636 0.0379,-0.0379 0.01184,-0.107418 -0.05791,-0.154477 -0.06975,-0.04706 -0.510954,-0.397475 -0.980447,-0.778701 -3.955341,-3.211713 -11.400564,-6.930837 -17.856694,-8.919985 -0.62475,-0.192487 -1.136386,-0.377652 -1.136967,-0.411478 -6.15e-4,-0.03383 0.226603,-0.327115 0.504854,-0.651756 l 0.505909,-0.590255 0.87706,0.07571 c 7.255835,0.626356 13.804892,3.005325 20.199262,7.337455 l 1.610025,1.090777 1.057372,2.180842 c 3.809362,7.85684 6.870529,17.045887 8.689364,26.083836 1.113315,5.532157 1.675607,10.444541 1.918248,16.758515 l 0.07363,1.916122 -0.873792,1.130609 c -4.182167,5.41135 -11.184439,9.335738 -18.881924,10.582278 -1.51915,0.246013 -4.758987,0.565333 -4.95483,0.488351 -0.10238,-0.04024 -1.652234,-1.883067 -4.251949,-5.055697 -0.715506,-0.873185 -1.027977,-1.342418 -0.919935,-1.381454 0.08999,-0.03251 0.81097,-0.280723 1.602182,-0.551576 4.433045,-1.517551 7.976777,-3.696859 10.94011,-6.7279 1.032495,-1.056086 2.006315,-2.241006 1.915991,-2.33133 -0.02451,-0.02451 -0.78774,0.404227 -1.696063,0.952753 -10.689226,6.455099 -24.678606,9.389504 -37.114351,7.78509 -4.603419,-0.593916 -10.732779,-2.198231 -15.275152,-3.998159 -1.97747,-0.783577 -5.87687,-2.703387 -7.932645,-3.905515 -0.811294,-0.474411 -1.497684,-0.83996 -1.525311,-0.812332 -0.112723,0.112723 1.428359,1.955403 2.442411,2.920404 2.922743,2.781369 6.716918,5.001326 10.859557,6.353885 l 0.830482,0.27115 -0.54842,0.697155 c -1.411122,1.793821 -4.815781,5.849863 -4.925582,5.867947 -0.06765,0.01114 -0.731857,-0.02527 -1.476015,-0.08091 z M 36.763902,63.841082 c 1.474018,-0.37699 2.569424,-1.011115 3.714318,-2.150199 2.013415,-2.003197 2.925022,-4.654482 2.62341,-7.62982 -0.237259,-2.340496 -0.995417,-4.017893 -2.509409,-5.551972 -0.796435,-0.807002 -1.186681,-1.09505 -2.031335,-1.499365 -3.397988,-1.626533 -7.452207,-0.886396 -9.838154,1.796051 -0.702673,0.789994 -1.623471,2.543684 -1.918711,3.654248 -0.312122,1.174064 -0.371057,3.52733 -0.117418,4.688478 0.263995,1.208562 1.091958,2.960773 1.838051,3.88985 1.980243,2.465909 5.231666,3.57194 8.239248,2.802729 z m 29.510953,0.06068 c 4.535312,-0.960973 7.404652,-5.834415 6.374462,-10.826735 -0.563347,-2.72999 -2.205337,-4.972931 -4.445135,-6.072004 -2.357256,-1.15671 -4.985852,-1.154508 -7.380074,0.0062 -2.084425,1.010504 -3.647975,3.027699 -4.320324,5.573816 -0.382329,1.447836 -0.384983,3.71091 -0.0059,5.036089 0.465629,1.627754 1.162353,2.814679 2.354919,4.011795 2.054732,2.062569 4.65309,2.857563 7.422059,2.270856 z"
     id="path217" />
</svg>
