<?xml version="1.0" encoding="UTF-8" standalone="no"?>
<svg
   viewBox="0 0 16 16"
   version="1.1"
   id="svg27"
   sodipodi:docname="github.svg"
   inkscape:version="1.2 (56b05e47e7, 2022-06-09, custom)"
   xmlns:inkscape="http://www.inkscape.org/namespaces/inkscape"
   xmlns:sodipodi="http://sodipodi.sourceforge.net/DTD/sodipodi-0.dtd"
   xmlns="http://www.w3.org/2000/svg"
   xmlns:svg="http://www.w3.org/2000/svg">
  <defs
     id="defs31" />
  <sodipodi:namedview
     id="namedview29"
     pagecolor="#ffffff"
     bordercolor="#000000"
     borderopacity="0.25"
     inkscape:showpageshadow="2"
     inkscape:pageopacity="0.0"
     inkscape:pagecheckerboard="0"
     inkscape:deskcolor="#d1d1d1"
     showgrid="false"
     inkscape:zoom="50.8125"
     inkscape:cx="7.9901599"
     inkscape:cy="8"
     inkscape:window-width="1920"
     inkscape:window-height="1016"
     inkscape:window-x="1920"
     inkscape:window-y="147"
     inkscape:window-maximized="1"
     inkscape:current-layer="svg27" />
  <path
     d="M7.999 0C3.582 0 0 3.596 0 8.032a8.031 8.031 0 0 0 5.472 7.621c.4.074.546-.174.546-.387 0-.191-.007-.696-.011-1.366-2.225.485-2.695-1.077-2.695-1.077-.363-.928-.888-1.175-.888-1.175-.727-.498.054-.488.054-.488.803.057 1.225.828 1.225.828.714 1.227 1.873.873 2.329.667.072-.519.279-.873.508-1.074-1.776-.203-3.644-.892-3.644-3.969 0-.877.312-1.594.824-2.156-.083-.203-.357-1.02.078-2.125 0 0 .672-.216 2.2.823a7.633 7.633 0 0 1 2.003-.27 7.65 7.65 0 0 1 2.003.271c1.527-1.039 2.198-.823 2.198-.823.436 1.106.162 1.922.08 2.125.513.562.822 1.279.822 2.156 0 3.085-1.87 3.764-3.652 3.963.287.248.543.738.543 1.487 0 1.074-.01 1.94-.01 2.203 0 .215.144.465.55.386A8.032 8.032 0 0 0 16 8.032C16 3.596 12.418 0 7.999 0z"
     id="path25" />
  <path
     style="fill:#ffffff;stroke-width:0.0196802"
     d="M 5.5092479,15.644213 C 5.4652875,15.636064 5.319162,15.587559 5.1845247,15.536425 3.6513002,14.954116 2.3205932,13.90172 1.4017363,12.544788 0.65652741,11.444293 0.21415419,10.2477 0.0562347,8.9052891 0.00723073,8.4887256 0.00740812,7.5643749 0.05657083,7.1537515 0.21091873,5.8645865 0.62091637,4.7170863 1.3042297,3.6618076 2.0671827,2.4835369 3.1471723,1.5116728 4.398524,0.87730511 5.5463728,0.29540774 6.6998644,0.01867828 7.9803198,0.01801097 8.6312592,0.01767172 9.0814284,0.0631002 9.6650781,0.18802708 10.807885,0.43263839 11.86871,0.91907765 12.81015,1.6301945 c 0.710856,0.5369451 1.395295,1.2743764 1.88562,2.0316131 0.687256,1.0613672 1.08259,2.1700119 1.24871,3.501784 0.04747,0.3805456 0.04713,1.3368854 -6.22e-4,1.7416975 -0.298452,2.5302939 -1.692626,4.7090139 -3.844994,6.0086979 -0.426991,0.257834 -1.098577,0.572401 -1.500819,0.702976 -0.242707,0.07879 -0.452777,0.02115 -0.551516,-0.151319 l -0.048989,-0.08557 0.00644,-1.220172 c 0.0067,-1.273662 -10e-4,-1.450358 -0.077205,-1.757431 -0.073546,-0.296504 -0.2340836,-0.613322 -0.3801933,-0.750305 -0.065007,-0.06095 -0.064231,-0.08021 0.00323,-0.08021 0.081843,-6e-6 0.5175363,-0.07364 0.7701913,-0.130161 1.313751,-0.293908 2.163891,-1.006502 2.548621,-2.1362735 C 13.085599,8.6683753 13.172341,7.6897637 13.068077,7.0553506 12.976543,6.4983972 12.731171,5.9614441 12.382986,5.5561482 L 12.295438,5.45424 12.330707,5.3495061 C 12.415562,5.0975297 12.43792,4.924258 12.436913,4.5264453 12.436098,4.2049405 12.42877,4.1095417 12.39174,3.9384087 12.332189,3.6631965 12.234961,3.3610289 12.196254,3.3308733 12.148444,3.2936233 11.899697,3.3009023 11.678247,3.3460303 11.25199,3.4328963 10.740992,3.6641184 10.188715,4.020032 L 10.005966,4.1378045 9.6868698,4.0672825 C 9.0267812,3.9213995 8.4652621,3.8663313 7.8130381,3.8835155 7.2438353,3.8985126 6.8297279,3.9488789 6.3173432,4.0654313 6.198278,4.092515 6.0787208,4.1194151 6.0516605,4.125209 6.0136553,4.1333465 5.935289,4.094304 5.7072571,3.9536258 5.1920807,3.635801 4.7127752,3.4257161 4.3204196,3.345759 4.0991526,3.3006677 3.8237684,3.2928951 3.7930212,3.3308733 3.7820672,3.3444034 3.7460009,3.4405451 3.7128738,3.5445215 3.5216242,4.1447998 3.5006565,4.8062428 3.657246,5.299346 L 3.7055585,5.4514832 3.5961856,5.5842901 C 3.0576256,6.2382418 2.8361448,7.0015471 2.8993958,7.9856878 2.94668,8.7213936 3.0541556,9.1891436 3.289257,9.6824216 3.5931857,10.32011 4.0318123,10.764769 4.6751673,11.087395 c 0.4419661,0.221634 1.0110188,0.389626 1.5732952,0.46446 0.2870223,0.0382 0.2732375,0.02996 0.1918105,0.114688 -0.1746354,0.181721 -0.3213619,0.49067 -0.3834903,0.80748 l -0.03447,0.175768 -0.1673681,0.06217 c -0.462136,0.17165 -0.9487708,0.182808 -1.3239539,0.03036 C 4.2402419,12.624172 3.9635515,12.369931 3.7224836,11.999407 3.4888039,11.640238 3.2681273,11.430305 2.9722661,11.285712 2.771177,11.187436 2.6123942,11.152605 2.4115686,11.162716 c -0.2632191,0.01325 -0.3507775,0.08322 -0.2829699,0.22611 0.034284,0.07225 0.1475635,0.172208 0.341266,0.30114 0.3291887,0.219113 0.6161563,0.613748 0.8372391,1.151362 0.2253622,0.548021 0.6622012,0.924711 1.2601066,1.0866 0.1855217,0.05023 0.2182741,0.0529 0.6480418,0.05287 0.349411,-4e-5 0.4882391,-0.0076 0.6087151,-0.0332 0.085839,-0.01824 0.1586868,-0.03054 0.161884,-0.02734 0.0032,0.0032 0.00824,0.332965 0.011211,0.732818 l 0.0054,0.727005 -0.053842,0.09159 c -0.081438,0.138534 -0.2550526,0.206715 -0.4393697,0.172549 z"
     id="path206" />
</svg>
