<?xml version="1.0" encoding="UTF-8" standalone="no"?>
<svg
   width="24"
   height="24"
   version="1.2"
   viewBox="0 0 24 24"
   id="svg247"
   sodipodi:docname="home(1).svg"
   inkscape:version="1.2 (56b05e47e7, 2022-06-09, custom)"
   xmlns:inkscape="http://www.inkscape.org/namespaces/inkscape"
   xmlns:sodipodi="http://sodipodi.sourceforge.net/DTD/sodipodi-0.dtd"
   xmlns="http://www.w3.org/2000/svg"
   xmlns:svg="http://www.w3.org/2000/svg">
  <defs
     id="defs251" />
  <sodipodi:namedview
     id="namedview249"
     pagecolor="#ffffff"
     bordercolor="#000000"
     borderopacity="0.25"
     inkscape:showpageshadow="2"
     inkscape:pageopacity="0.0"
     inkscape:pagecheckerboard="0"
     inkscape:deskcolor="#d1d1d1"
     showgrid="false"
     inkscape:zoom="36.458333"
     inkscape:cx="11.986286"
     inkscape:cy="12.027429"
     inkscape:window-width="1920"
     inkscape:window-height="1016"
     inkscape:window-x="1920"
     inkscape:window-y="147"
     inkscape:window-maximized="1"
     inkscape:current-layer="svg247" />
  <path
     d="M12 3s-6.186 5.34-9.643 8.232A1.041 1.041 0 0 0 2 12a1 1 0 0 0 1 1h2v7a1 1 0 0 0 1 1h3a1 1 0 0 0 1-1v-4h4v4a1 1 0 0 0 1 1h3a1 1 0 0 0 1-1v-7h2a1 1 0 0 0 1-1 .98.98 0 0 0-.383-.768C18.184 8.34 12 3 12 3z"
     id="path245" />
  <path
     style="fill:#ffffff;stroke-width:0.0274286"
     d="M 5.7000491,20.932331 C 5.4124701,20.83212 5.1933943,20.625497 5.079086,20.346665 L 5.019429,20.201143 5.012079,16.58856 5.004729,12.975977 3.8600788,12.967977 2.7154286,12.96 2.5690285,12.882893 C 1.907939,12.534707 1.83369,11.679901 2.4227659,11.199016 3.0644636,10.675174 7.0546601,7.2758433 10.006071,4.7386424 c 1.068139,-0.9182332 1.960781,-1.6766947 1.983649,-1.68547 0.0252,-0.00967 0.08132,0.021724 0.142501,0.079728 0.216978,0.2057143 6.908272,5.940547 8.69284,7.4502746 0.486469,0.411549 0.915013,0.788289 0.95232,0.837201 0.140749,0.184531 0.19235,0.343466 0.192637,0.593338 2.19e-4,0.202401 -0.01029,0.254646 -0.0798,0.396221 -0.101975,0.20769 -0.277835,0.38355 -0.476826,0.476826 l -0.156247,0.07324 -1.131429,0.0077 -1.131428,0.0077 v 3.545364 c 0,3.903471 0.0074,3.727767 -0.168312,4.001574 -0.108031,0.168352 -0.244874,0.286755 -0.433865,0.375399 L 18.24,20.969143 h -1.742291 -1.742291 l -0.183122,-0.09015 c -0.295623,-0.145534 -0.490048,-0.411095 -0.544548,-0.743786 -0.01383,-0.08442 -0.02522,-1.051435 -0.0253,-2.14892 l -1.59e-4,-1.995429 H 12 9.9977143 l -1.646e-4,1.995429 c -8.23e-5,1.097485 -0.011474,2.0645 -0.025303,2.14892 -0.054139,0.330484 -0.2714869,0.619599 -0.571499,0.760204 l -0.1573187,0.07373 -1.7005715,0.0064 c -1.5790417,0.0059 -1.7107361,0.0028 -1.842808,-0.04319 z"
     id="path253" />
</svg>
