<?xml version="1.0" encoding="UTF-8" standalone="no"?>
<svg
   width="2500"
   height="2500"
   viewBox="0 0 2476 2476"
   version="1.1"
   id="svg305"
   sodipodi:docname="instagram(1).svg"
   inkscape:version="1.2 (56b05e47e7, 2022-06-09, custom)"
   xmlns:inkscape="http://www.inkscape.org/namespaces/inkscape"
   xmlns:sodipodi="http://sodipodi.sourceforge.net/DTD/sodipodi-0.dtd"
   xmlns="http://www.w3.org/2000/svg"
   xmlns:svg="http://www.w3.org/2000/svg">
  <defs
     id="defs309" />
  <sodipodi:namedview
     id="namedview307"
     pagecolor="#ffffff"
     bordercolor="#000000"
     borderopacity="0.25"
     inkscape:showpageshadow="2"
     inkscape:pageopacity="0.0"
     inkscape:pagecheckerboard="0"
     inkscape:deskcolor="#d1d1d1"
     showgrid="false"
     inkscape:zoom="0.35"
     inkscape:cx="1251.4286"
     inkscape:cy="1252.8571"
     inkscape:window-width="1920"
     inkscape:window-height="1016"
     inkscape:window-x="1920"
     inkscape:window-y="147"
     inkscape:window-maximized="1"
     inkscape:current-layer="svg305" />
  <path
     d="M825.4 1238c0-227.9 184.7-412.7 412.6-412.7 227.9 0 412.7 184.8 412.7 412.7 0 227.9-184.8 412.7-412.7 412.7-227.9 0-412.6-184.8-412.6-412.7m-223.1 0c0 351.1 284.6 635.7 635.7 635.7s635.7-284.6 635.7-635.7-284.6-635.7-635.7-635.7S602.3 886.9 602.3 1238m1148-660.9c0 82 66.5 148.6 148.6 148.6 82 0 148.6-66.6 148.6-148.6s-66.5-148.5-148.6-148.5-148.6 66.5-148.6 148.5M737.8 2245.7c-120.7-5.5-186.3-25.6-229.9-42.6-57.8-22.5-99-49.3-142.4-92.6-43.3-43.3-70.2-84.5-92.6-142.3-17-43.6-37.1-109.2-42.6-229.9-6-130.5-7.2-169.7-7.2-500.3s1.3-369.7 7.2-500.3c5.5-120.7 25.7-186.2 42.6-229.9 22.5-57.8 49.3-99 92.6-142.4 43.3-43.3 84.5-70.2 142.4-92.6 43.6-17 109.2-37.1 229.9-42.6 130.5-6 169.7-7.2 500.2-7.2 330.6 0 369.7 1.3 500.3 7.2 120.7 5.5 186.2 25.7 229.9 42.6 57.8 22.4 99 49.3 142.4 92.6 43.3 43.3 70.1 84.6 92.6 142.4 17 43.6 37.1 109.2 42.6 229.9 6 130.6 7.2 169.7 7.2 500.3 0 330.5-1.2 369.7-7.2 500.3-5.5 120.7-25.7 186.3-42.6 229.9-22.5 57.8-49.3 99-92.6 142.3-43.3 43.3-84.6 70.1-142.4 92.6-43.6 17-109.2 37.1-229.9 42.6-130.5 6-169.7 7.2-500.3 7.2-330.5 0-369.7-1.2-500.2-7.2M727.6 7.5c-131.8 6-221.8 26.9-300.5 57.5-81.4 31.6-150.4 74-219.3 142.8C139 276.6 96.6 345.6 65 427.1 34.4 505.8 13.5 595.8 7.5 727.6 1.4 859.6 0 901.8 0 1238s1.4 378.4 7.5 510.4c6 131.8 26.9 221.8 57.5 300.5 31.6 81.4 73.9 150.5 142.8 219.3 68.8 68.8 137.8 111.1 219.3 142.8 78.8 30.6 168.7 51.5 300.5 57.5 132.1 6 174.2 7.5 510.4 7.5 336.3 0 378.4-1.4 510.4-7.5 131.8-6 221.8-26.9 300.5-57.5 81.4-31.7 150.4-74 219.3-142.8 68.8-68.8 111.1-137.9 142.8-219.3 30.6-78.7 51.6-168.7 57.5-300.5 6-132.1 7.4-174.2 7.4-510.4s-1.4-378.4-7.4-510.4c-6-131.8-26.9-221.8-57.5-300.5-31.7-81.4-74-150.4-142.8-219.3C2199.4 139 2130.3 96.6 2049 65c-78.8-30.6-168.8-51.6-300.5-57.5-132-6-174.2-7.5-510.4-7.5-336.3 0-378.4 1.4-510.5 7.5"
     id="path303" />
  <path
     style="fill:#ffffff;stroke-width:2.85714"
     d="m 997.14286,2496.8689 c -173.98957,-1.6826 -261.82012,-4.3558 -320,-9.7398 C 479.59103,2468.8478 335.6612,2408.7585 219.11884,2295.9087 136.4693,2215.8778 86.416034,2133.1516 48.909794,2014.5932 7.2894586,1883.0301 -0.13749771,1749.1477 2.2691986,1173.8245 3.073138,981.64203 5.1069029,803.53731 6.880442,770 13.966491,636.00406 25.671106,557.97643 50.211797,481.13586 86.950814,366.10046 137.63332,282.97417 219.11884,204.105 293.04923,132.54839 367.1794,88.235171 470,54.134349 608.00651,8.3639906 697.09863,2.4624969 1250,2.4668654 c 553.9175,0.00438 641.7527,5.8223632 780,51.6653006 101.4383,33.637017 176.0793,77.826274 247.2755,146.392994 87.8541,84.60933 142.9799,177.35053 178.229,299.84418 37.7196,131.07883 44.7792,270.56097 42.2056,833.88076 -1.7001,372.0938 -4.4809,457.1735 -18.0249,551.4642 -12.6921,88.3608 -38.1139,171.4739 -74.7471,244.3759 -53.1234,105.7184 -149.5182,205.8673 -253.5095,263.3825 -97.3821,53.8598 -212.171,85.2318 -347.1429,94.875 -121.4194,8.675 -441.6512,12.0557 -807.14284,8.5212 z m 560.00004,-222.6102 c 205.593,-3.6531 264.2308,-7.4376 337.1428,-21.7592 87.3781,-17.1632 161.9625,-51.8206 217.1429,-100.9008 70.2239,-62.4606 112.0458,-134.221 135.808,-233.0273 25.2936,-105.1739 29.6573,-221.2231 27.664,-735.7143 C 2273.5019,821.83069 2271.8219,751.04737 2262.7283,670 2247.9441,538.2364 2207.4409,444.02683 2133.7322,369.95786 2098.1131,334.16463 2066.9307,311.43197 2025.7143,291.2104 1951.3705,254.73591 1879.3164,238.5903 1758.5714,231.35009 1581.2403,220.71682 917.60943,220.7052 741.42857,231.33228 573.17403,241.48125 469.31923,276.11291 388.00614,349.18531 334.8484,396.9558 303.51057,441.01917 277.47902,504.59497 230.79465,618.61029 224.31377,709.47577 224.31377,1250 c 0,470.1704 4.66367,574.4991 30.17009,674.9198 22.56773,88.8508 56.66988,150.2654 115.9222,208.7643 34.0072,33.5748 66.77743,57.048 106.7368,76.4552 72.73443,35.3253 144.64328,51.0198 268.57143,58.6171 118.4442,7.2611 548.36891,10.1765 811.42861,5.5023 z"
     id="path311"
     transform="scale(0.9904)" />
  <path
     style="fill:#ffffff;stroke-width:2.85714"
     d="M 1201.4286,1888.5681 C 999.36774,1872.6769 813.148,1759.7633 707.15505,1588.8675 524.06029,1293.658 607.02695,910.22206 895.71429,717.42846 1002.217,646.30292 1120.6289,610.59692 1250,610.59692 c 61.2534,0 101.9283,5.02994 159.9244,19.77658 156.9213,39.90033 297.4324,142.92363 382.9205,280.75899 106.091,171.05381 126.5154,380.01691 55.4006,566.80581 -13.4102,35.223 -43.2203,92.7398 -65.1703,125.742 -87.7371,131.9144 -222.164,227.5646 -374.1047,266.1907 -66.2287,16.8365 -143.1206,23.7636 -207.5419,18.6971 z m 127.8777,-228.2972 c 56.4377,-10.9404 109.3966,-33.2118 159.2651,-66.9773 28.5647,-19.3409 78.8235,-67.9748 98.5868,-95.3993 33.1392,-45.9857 57.4717,-99.6252 70.8518,-156.1881 6.7934,-28.7188 7.5097,-37.2249 7.6022,-90.2776 0.089,-51.1855 -0.7406,-62.3545 -6.5808,-88.5715 -16.9586,-76.1283 -51.8325,-142.8866 -103.4484,-198.02836 -61.5413,-65.74525 -140.9577,-109.16007 -231.2973,-126.44407 -36.8827,-7.05649 -111.2634,-7.18798 -147.1428,-0.26011 -125.836,24.29731 -228.01173,96.45053 -290.76713,205.33024 -17.8914,31.0413 -35.08825,75.5347 -44.38573,114.839 -6.79346,28.7188 -7.50975,37.2249 -7.60223,90.2776 -0.0891,51.1483 0.74361,62.3736 6.57078,88.5715 40.34318,181.3754 186.91241,310.8234 373.32711,329.7174 23.6053,2.3926 87.5981,-1.2736 115.0206,-6.5894 z"
     id="path313"
     transform="scale(0.9904)" />
  <path
     style="fill:#ffffff;stroke-width:2.85714"
     d="m 1883.6618,726.9916 c -49.7988,-12.07289 -93.0928,-52.42755 -107.9897,-100.6579 -7.6597,-24.79932 -7.6597,-62.15379 0,-86.95311 19.9832,-64.69802 85.9618,-109.6099 152.8993,-104.07917 38.5039,3.18138 68.5818,17.85627 96.4221,47.04393 26.8243,28.12246 39.8518,61.39367 39.6959,101.38005 -0.367,94.12843 -90.261,165.271 -181.0276,143.2662 z"
     id="path315"
     transform="scale(0.9904)" />
</svg>
