<?xml version="1.0" encoding="UTF-8" standalone="no"?>
<svg
   viewBox="0 0 256 256"
   version="1.1"
   id="svg298"
   sodipodi:docname="link(1).svg"
   inkscape:version="1.2 (56b05e47e7, 2022-06-09, custom)"
   xmlns:inkscape="http://www.inkscape.org/namespaces/inkscape"
   xmlns:sodipodi="http://sodipodi.sourceforge.net/DTD/sodipodi-0.dtd"
   xmlns="http://www.w3.org/2000/svg"
   xmlns:svg="http://www.w3.org/2000/svg">
  <defs
     id="defs302" />
  <sodipodi:namedview
     id="namedview300"
     pagecolor="#ffffff"
     bordercolor="#000000"
     borderopacity="0.25"
     inkscape:showpageshadow="2"
     inkscape:pageopacity="0.0"
     inkscape:pagecheckerboard="0"
     inkscape:deskcolor="#d1d1d1"
     showgrid="false"
     inkscape:zoom="3.4179688"
     inkscape:cx="127.85371"
     inkscape:cy="128.29257"
     inkscape:window-width="1920"
     inkscape:window-height="1016"
     inkscape:window-x="1920"
     inkscape:window-y="147"
     inkscape:window-maximized="1"
     inkscape:current-layer="svg298" />
  <rect
     width="256"
     height="256"
     fill="none"
     id="rect292" />
  <path
     fill="none"
     stroke="#000"
     stroke-linecap="round"
     stroke-linejoin="round"
     stroke-width="24"
     d="M130.49413,63.28047l11.648-11.648a44,44,0,1,1,62.22539,62.22539l-28.28427,28.28428a44,44,0,0,1-62.2254,0"
     id="path294" />
  <path
     fill="none"
     stroke="#000"
     stroke-linecap="round"
     stroke-linejoin="round"
     stroke-width="24"
     d="M125.50407,192.72133l-11.64621,11.6462a44,44,0,1,1-62.22539-62.22539l28.28427-28.28428a44,44,0,0,1,62.2254,0"
     id="path296" />
  <path
     style="fill:#ffffff;stroke-width:0.292571"
     d="m 75.380072,228.61192 c -3.552417,-0.48239 -7.745129,-1.50611 -11.284041,-2.75519 -13.764715,-4.85834 -25.311887,-15.24097 -31.605412,-28.41797 -9.611451,-20.12388 -6.659602,-43.1433 7.728355,-60.26808 2.947972,-3.50872 33.138306,-33.57118 35.872675,-35.72073 7.245555,-5.695895 15.621059,-9.555397 24.712161,-11.387574 2.93018,-0.590534 4.21614,-0.675866 10.22705,-0.678636 6.04085,-0.0028 7.28226,0.07921 10.22704,0.675468 4.45498,0.902046 10.33937,2.865444 14.14642,4.720127 6.01551,2.930579 14.10542,8.974575 16.3191,12.192055 5.06439,7.36084 0.98029,17.01907 -7.8548,18.57535 -3.65526,0.64386 -6.79307,-0.53781 -10.89868,-4.10433 -4.96851,-4.31612 -9.69871,-6.73597 -15.50479,-7.93187 -2.61335,-0.53828 -3.72217,-0.61093 -7.45829,-0.48863 -5.04883,0.16527 -7.70256,0.7251 -11.789663,2.48714 -5.532499,2.3852 -6.420887,3.15182 -23.939505,20.6585 -16.279733,16.26863 -17.994143,18.16964 -20.071408,22.25605 -6.001209,11.80561 -4.360985,25.88345 4.172576,35.81273 10.165746,11.82841 27.76464,14.60152 41.095426,6.47553 2.972014,-1.81164 4.479954,-3.14363 12.288004,-10.85428 7.57581,-7.48132 8.48707,-8.15274 11.9248,-8.78616 5.70508,-1.0512 11.72464,2.90454 13.23316,8.69616 0.84245,3.23438 0.29727,6.50764 -1.56806,9.4145 -1.20329,1.87516 -15.36215,15.85829 -18.33338,18.10584 -8.64135,6.53664 -17.92882,10.29819 -28.369667,11.49011 -3.574524,0.40806 -9.595831,0.33269 -13.269071,-0.16611 z"
     id="path304" />
  <path
     style="fill:#ffffff;stroke-width:0.292571"
     d="m 138.82514,166.5815 c -12.18007,-1.48783 -24.51459,-7.36371 -32.78934,-15.62008 -4.22592,-4.21653 -5.16282,-9.50007 -2.5529,-14.39678 2.27518,-4.26867 7.44485,-6.91486 11.95651,-6.12014 2.76582,0.48719 4.58549,1.46456 7.56661,4.06415 5.01523,4.37337 9.69736,6.77968 15.52883,7.98081 2.61335,0.53828 3.72217,0.61093 7.45829,0.48863 5.04883,-0.16527 7.70256,-0.7251 11.78966,-2.48714 5.54291,-2.38968 6.41848,-3.1452 23.93861,-20.65652 10.9814,-10.97587 16.61351,-16.81789 17.65419,-18.31214 4.06811,-5.841216 5.9546,-11.83508 5.93934,-18.870861 -0.008,-3.882303 -0.34341,-6.118933 -1.44415,-9.641932 -5.83644,-18.680053 -27.07031,-27.72361 -44.83224,-19.094158 -3.87955,1.884842 -6.66944,4.17863 -14.50826,11.928393 -7.837,7.747956 -8.71158,8.403056 -12.11115,9.071883 -5.82884,1.146751 -12.08,-3.085517 -13.47133,-9.12059 -0.67681,-2.935758 -0.0489,-6.25173 1.7,-8.977104 1.20329,-1.875159 15.36215,-15.858295 18.33338,-18.105845 10.35115,-7.829987 21.89432,-11.784315 34.42554,-11.793104 23.8953,-0.01676 45.35348,15.604805 52.8664,38.486755 5.74248,17.489782 2.66061,35.876773 -8.55452,51.037703 -1.43135,1.93493 -6.68424,7.43499 -17.28847,18.10194 -8.37784,8.42739 -16.549,16.50372 -18.15814,17.94741 -5.64366,5.06339 -12.65202,9.12592 -19.80219,11.47874 -6.30895,2.07602 -9.32693,2.56237 -16.47667,2.65525 -3.3792,0.0439 -6.6048,0.0235 -7.168,-0.0453 z"
     id="path306" />
</svg>
