<?xml version="1.0" encoding="UTF-8" standalone="no"?>
<svg
   id="Layer_1"
   x="0"
   y="0"
   version="1.1"
   viewBox="0 0 29 29"
   xml:space="preserve"
   sodipodi:docname="list(1).svg"
   inkscape:version="1.2 (56b05e47e7, 2022-06-09, custom)"
   xmlns:inkscape="http://www.inkscape.org/namespaces/inkscape"
   xmlns:sodipodi="http://sodipodi.sourceforge.net/DTD/sodipodi-0.dtd"
   xmlns="http://www.w3.org/2000/svg"
   xmlns:svg="http://www.w3.org/2000/svg"><defs
     id="defs363" /><sodipodi:namedview
     id="namedview361"
     pagecolor="#ffffff"
     bordercolor="#000000"
     borderopacity="0.25"
     inkscape:showpageshadow="2"
     inkscape:pageopacity="0.0"
     inkscape:pagecheckerboard="0"
     inkscape:deskcolor="#d1d1d1"
     showgrid="false"
     inkscape:zoom="30.172414"
     inkscape:cx="14.483429"
     inkscape:cy="14.5"
     inkscape:window-width="1920"
     inkscape:window-height="1016"
     inkscape:window-x="1920"
     inkscape:window-y="147"
     inkscape:window-maximized="1"
     inkscape:current-layer="Layer_1" /><circle
     cx="5"
     cy="5.5"
     r="2.5"
     id="circle348" /><path
     fill="none"
     stroke="#000"
     stroke-linecap="round"
     stroke-linejoin="round"
     stroke-miterlimit="10"
     stroke-width="2"
     d="M12.5 6h14"
     id="path350" /><circle
     cx="5"
     cy="14.5"
     r="2.5"
     id="circle352" /><path
     fill="none"
     stroke="#000"
     stroke-linecap="round"
     stroke-linejoin="round"
     stroke-miterlimit="10"
     stroke-width="2"
     d="M12.5 15h14"
     id="path354" /><circle
     cx="5"
     cy="23.5"
     r="2.5"
     id="circle356" /><path
     fill="none"
     stroke="#000"
     stroke-linecap="round"
     stroke-linejoin="round"
     stroke-miterlimit="10"
     stroke-width="2"
     d="M12.5 24h14"
     id="path358" /><path
     style="fill:#ffffff;stroke-width:0.0331429"
     d="M 4.5192383,25.936093 C 4.0318536,25.834185 3.6274707,25.614811 3.2634869,25.254857 2.0491625,24.053978 2.3772375,22.031234 3.9081184,21.280386 4.3760606,21.050875 4.8874222,20.967682 5.3530543,21.04531 c 1.6925868,0.282182 2.6101326,2.042611 1.8571922,3.563261 -0.3084043,0.622858 -0.9009956,1.108625 -1.5759608,1.291866 -0.2760177,0.07493 -0.8408181,0.09299 -1.1150474,0.03566 z"
     id="path365" /><path
     style="fill:#ffffff;stroke-width:0.0331429"
     d="M 4.3951395,16.90322 C 3.6850432,16.711882 3.1037175,16.241218 2.7879661,15.601989 2.5959697,15.213299 2.5271839,14.92263 2.5271839,14.5 c 0,-0.420511 0.068175,-0.709408 0.2613515,-1.107498 0.1288462,-0.26552 0.1966533,-0.357066 0.4545922,-0.613739 0.339392,-0.337727 0.6035321,-0.506884 0.9991581,-0.63987 0.2403434,-0.08079 0.3116419,-0.0892 0.7622857,-0.08987 0.4599999,-6.94e-4 0.5169525,0.0062 0.7622857,0.09189 0.8754557,0.305872 1.523833,1.050961 1.6758136,1.92578 0.0524,0.301619 0.021375,0.868896 -0.061974,1.133163 -0.2496214,0.791452 -0.833283,1.390749 -1.6138391,1.657074 -0.3647864,0.124464 -1.0018283,0.145966 -1.3717176,0.0463 z"
     id="path367" /><path
     style="fill:#ffffff;stroke-width:0.0331429"
     d="M 4.5942885,7.9500676 C 3.9398507,7.8413677 3.3204057,7.4384112 2.9547443,6.8835235 2.6462749,6.4154241 2.5229348,6.0065531 2.5279094,5.4685714 2.5365757,4.5313587 3.0624212,3.6991577 3.9108571,3.2799238 4.30139,3.0869516 4.5368703,3.0341572 5.0045714,3.0347146 5.455471,3.0352519 5.6940696,3.0869476 6.0661166,3.2647129 7.4231655,3.9131155 7.8924511,5.6199553 7.0589361,6.8756988 6.5314735,7.6703545 5.5323637,8.1058782 4.5942885,7.9500676 Z"
     id="path369" /><path
     style="fill:#ffffff;stroke-width:0.0331429"
     d="M 12.22308,6.931622 C 11.865772,6.8077574 11.629294,6.5601997 11.549148,6.2261149 11.440478,5.773129 11.671258,5.3141444 12.111508,5.107669 L 12.296,5.0211429 h 7.192 c 7.009372,0 7.196184,0.00161 7.356781,0.063549 0.09063,0.034952 0.234439,0.1287066 0.319578,0.2083438 0.512552,0.4794322 0.365333,1.3082754 -0.285502,1.6073786 l -0.165714,0.076157 -7.158857,0.0074 c -6.822691,0.00705 -7.166951,0.00459 -7.331206,-0.052348 z"
     id="path371" /><path
     style="fill:#ffffff;stroke-width:0.0331429"
     d="m 12.157603,15.920739 c -0.189637,-0.06741 -0.426768,-0.284533 -0.533674,-0.488651 -0.07466,-0.14256 -0.08904,-0.212341 -0.08957,-0.434945 -5.61e-4,-0.232224 0.01148,-0.287029 0.09701,-0.441425 0.109033,-0.196825 0.249832,-0.333488 0.458413,-0.444943 l 0.139935,-0.07478 7.214825,-0.0086 7.214825,-0.0086 0.183356,0.0686 c 0.529971,0.198288 0.785279,0.82846 0.539317,1.331189 -0.0993,0.202954 -0.24333,0.347676 -0.462673,0.464882 l -0.139935,0.07477 -7.241715,0.0058 c -6.328921,0.0051 -7.259158,-3.77e-4 -7.380111,-0.04337 z"
     id="path373" /><path
     style="fill:#ffffff;stroke-width:0.0331429"
     d="m 12.246135,24.945142 c -0.410101,-0.111191 -0.728992,-0.526308 -0.728992,-0.948965 0,-0.355436 0.261391,-0.744597 0.60419,-0.899523 L 12.296,23.017714 h 7.208571 7.208572 l 0.153199,0.07084 c 0.787616,0.364181 0.813618,1.387204 0.04566,1.796312 l -0.165714,0.08828 -7.175429,0.0062 c -5.56317,0.0048 -7.208974,-0.0029 -7.324722,-0.03424 z"
     id="path375" /></svg>
