<?xml version="1.0" encoding="UTF-8" standalone="no"?>
<svg
   width="24"
   height="24"
   viewBox="0 0 24 24"
   version="1.1"
   id="svg428"
   sodipodi:docname="social(1).svg"
   inkscape:version="1.2 (56b05e47e7, 2022-06-09, custom)"
   xmlns:inkscape="http://www.inkscape.org/namespaces/inkscape"
   xmlns:sodipodi="http://sodipodi.sourceforge.net/DTD/sodipodi-0.dtd"
   xmlns="http://www.w3.org/2000/svg"
   xmlns:svg="http://www.w3.org/2000/svg">
  <defs
     id="defs432" />
  <sodipodi:namedview
     id="namedview430"
     pagecolor="#ffffff"
     bordercolor="#000000"
     borderopacity="0.25"
     inkscape:showpageshadow="2"
     inkscape:pageopacity="0.0"
     inkscape:pagecheckerboard="0"
     inkscape:deskcolor="#d1d1d1"
     showgrid="false"
     inkscape:zoom="36.458333"
     inkscape:cx="11.986286"
     inkscape:cy="12.027429"
     inkscape:window-width="1920"
     inkscape:window-height="1016"
     inkscape:window-x="1920"
     inkscape:window-y="147"
     inkscape:window-maximized="1"
     inkscape:current-layer="svg428" />
  <path
     fill="none"
     d="M0 0h24v24H0V0z"
     id="path424" />
  <path
     d="M18 16.08c-.76 0-1.44.3-1.96.77L8.91 12.7c.05-.23.09-.46.09-.7s-.04-.47-.09-.7l7.05-4.11c.54.5 1.25.81 2.04.81 1.66 0 3-1.34 3-3s-1.34-3-3-3-3 1.34-3 3c0 .24.04.47.09.7L8.04 9.81C7.5 9.31 6.79 9 6 9c-1.66 0-3 1.34-3 3s1.34 3 3 3c.79 0 1.5-.31 2.04-.81l7.12 4.16c-.05.21-.08.43-.08.65 0 1.61 1.31 2.92 2.92 2.92s2.92-1.31 2.92-2.92-1.31-2.92-2.92-2.92z"
     id="path426" />
  <path
     style="fill:#ffffff;stroke-width:0.0274286"
     d="m 17.673525,21.88692 c -1.180991,-0.13785 -2.179571,-1.008556 -2.483847,-2.165777 -0.0881,-0.335075 -0.111967,-0.847025 -0.05434,-1.165714 0.02182,-0.120686 0.0381,-0.220343 0.03617,-0.221461 -0.0019,-0.0011 -1.606078,-0.937691 -3.564774,-2.081273 l -3.5612646,-2.079239 -0.073021,0.0586 C 7.4788095,14.628215 7.047416,14.837967 6.5228421,14.936884 6.1686303,15.003674 5.5776584,14.978494 5.2280701,14.881714 3.824268,14.493076 2.8781986,13.13184 3.0302668,11.71944 3.1652538,10.465688 4.0214776,9.4523276 5.2280712,9.1182874 5.5776595,9.0215056 6.1686314,8.9963235 6.5228432,9.0631153 7.0473542,9.16202 7.4789861,9.3718763 7.9722994,9.7678308 L 8.04517,9.82632 11.565442,7.7755411 c 1.93615,-1.1279287 3.524463,-2.0542412 3.529585,-2.0584723 0.0051,-0.00423 -0.01031,-0.1219063 -0.03429,-0.2615002 -0.124766,-0.7263261 0.03767,-1.4674744 0.466639,-2.1290977 0.168018,-0.2591473 0.647257,-0.7125091 0.928431,-0.8782999 1.041012,-0.6138206 2.298456,-0.5662208 3.279046,0.1241263 0.547067,0.3851413 0.984364,1.0225657 1.152031,1.6792516 0.180991,0.7088742 0.106215,1.4125002 -0.220065,2.0707368 C 20.500468,6.6578894 20.326691,6.8922103 20.04533,7.160307 18.959454,8.1949895 17.311283,8.2596919 16.135397,7.3137992 15.995724,7.2014447 15.96075,7.1849491 15.910631,7.2077851 c -0.05435,0.024763 -6.9865582,4.0606919 -7.0039386,4.0776899 -0.00418,0.0041 0.011203,0.123323 0.034175,0.264975 0.052846,0.325853 0.052846,0.573247 0,0.8991 -0.022973,0.141652 -0.038352,0.260842 -0.034175,0.264866 0.00418,0.004 1.6105496,0.940249 3.5697196,2.080497 l 3.562126,2.073179 0.16816,-0.132747 c 0.344641,-0.272065 0.737588,-0.465531 1.162793,-0.572498 0.135943,-0.0342 0.304435,-0.04663 0.637366,-0.04703 0.410886,-4.93e-4 0.477835,0.0064 0.726857,0.07531 0.851155,0.23538 1.517337,0.795611 1.894201,1.592945 0.52051,1.101245 0.290619,2.391151 -0.581611,3.263381 -0.470982,0.470983 -1.057409,0.755885 -1.724018,0.837575 -0.271791,0.03331 -0.377029,0.03362 -0.648761,0.0019 z"
     id="path434" />
</svg>
