<?xml version="1.0" encoding="UTF-8" standalone="no"?>
<svg
   viewBox="0 0 20 20"
   version="1.1"
   id="svg258"
   sodipodi:docname="spotify(1).svg"
   inkscape:version="1.2 (56b05e47e7, 2022-06-09, custom)"
   xmlns:inkscape="http://www.inkscape.org/namespaces/inkscape"
   xmlns:sodipodi="http://sodipodi.sourceforge.net/DTD/sodipodi-0.dtd"
   xmlns="http://www.w3.org/2000/svg"
   xmlns:svg="http://www.w3.org/2000/svg">
  <defs
     id="defs262" />
  <sodipodi:namedview
     id="namedview260"
     pagecolor="#ffffff"
     bordercolor="#000000"
     borderopacity="0.25"
     inkscape:showpageshadow="2"
     inkscape:pageopacity="0.0"
     inkscape:pagecheckerboard="0"
     inkscape:deskcolor="#d1d1d1"
     showgrid="false"
     inkscape:zoom="43.75"
     inkscape:cx="9.9885714"
     inkscape:cy="10"
     inkscape:window-width="1920"
     inkscape:window-height="1016"
     inkscape:window-x="1920"
     inkscape:window-y="147"
     inkscape:window-maximized="1"
     inkscape:current-layer="svg258" />
  <path
     d="M10 1.2A8.798 8.798 0 0 0 1.2 10 8.8 8.8 0 1 0 10 1.2zm3.478 13.302c-.173 0-.294-.066-.421-.143-1.189-.721-2.662-1.099-4.258-1.099-.814 0-1.693.097-2.61.285l-.112.028c-.116.028-.235.059-.326.059a.651.651 0 0 1-.661-.656c0-.373.21-.637.562-.703a14.037 14.037 0 0 1 3.152-.372c1.855 0 3.513.43 4.931 1.279.243.142.396.306.396.668a.655.655 0 0 1-.653.654zm.913-2.561c-.207 0-.343-.079-.463-.149-2.143-1.271-5.333-1.693-7.961-.993a3.742 3.742 0 0 0-.12.037c-.099.031-.191.062-.321.062a.786.786 0 0 1-.783-.788c0-.419.219-.712.614-.824 1.013-.278 1.964-.462 3.333-.462 2.212 0 4.357.555 6.038 1.561.306.175.445.414.445.771a.784.784 0 0 1-.782.785zm1.036-2.92c-.195 0-.315-.047-.495-.144-1.453-.872-3.72-1.391-6.069-1.391-1.224 0-2.336.135-3.306.397a2.072 2.072 0 0 0-.098.027 1.281 1.281 0 0 1-.365.068.914.914 0 0 1-.919-.929c0-.453.254-.799.68-.925 1.171-.346 2.519-.521 4.006-.521 2.678 0 5.226.595 6.991 1.631.332.189.495.475.495.872a.908.908 0 0 1-.92.915z"
     id="path256" />
  <path
     style="fill:#ffffff;stroke-width:0.0228571"
     d="M 9.4285714,18.774047 C 9.1610064,18.754218 8.5359989,18.668051 8.2742857,18.614911 4.489389,17.846409 1.6547049,14.721669 1.2583872,10.881119 1.2163976,10.474215 1.2100261,9.6054469 1.2462255,9.2228571 1.5116306,6.4178057 3.0452255,3.9560962 5.44,2.4910571 7.3126624,1.3454279 9.6152747,0.94666041 11.770182,1.3947934 c 3.76545,0.7830605 6.576578,3.8977451 6.971448,7.7242553 0.0694,0.6725705 0.04213,1.5963713 -0.06732,2.2796893 -0.407672,2.545372 -1.949691,4.815578 -4.171458,6.141345 -1.0571,0.630789 -2.164312,1.011182 -3.439586,1.181699 -0.334143,0.04468 -1.3142429,0.07601 -1.6346996,0.05226 z m 4.2462716,-4.294633 c 0.159426,-0.04734 0.294875,-0.157135 0.379962,-0.307985 0.0662,-0.117365 0.07091,-0.140897 0.07091,-0.354286 0,-0.260569 -0.03316,-0.349307 -0.186856,-0.500073 -0.181567,-0.178103 -0.98711,-0.591113 -1.607429,-0.824145 -1.818443,-0.683125 -4.0342713,-0.78544 -6.387912,-0.29496 -0.4346589,0.09058 -0.5540128,0.137295 -0.6784898,0.26556 -0.1570587,0.161838 -0.2255077,0.485558 -0.1534926,0.725923 0.043457,0.145045 0.1779173,0.29936 0.3275015,0.37586 0.1739024,0.08894 0.3544222,0.09037 0.7209639,0.0057 0.3618322,-0.08356 0.8469595,-0.164741 1.3487337,-0.225685 0.3630814,-0.0441 0.5387438,-0.05152 1.245552,-0.05263 0.8596492,-0.0013 1.0035237,0.0087 1.6280643,0.113849 0.944453,0.158983 1.845172,0.480021 2.603587,0.927983 0.309612,0.182874 0.456741,0.213814 0.688906,0.144868 z m 1.069981,-2.615819 c 0.166917,-0.08217 0.288792,-0.20883 0.371971,-0.386566 0.05203,-0.111176 0.05998,-0.157671 0.05912,-0.3456 -0.0018,-0.404361 -0.138398,-0.590473 -0.64075,-0.87333 C 13.160545,9.4840974 11.502297,8.999667 9.7410597,8.8575776 9.2436709,8.8174503 8.1899474,8.8116075 7.7359975,8.8464601 7.0418091,8.899757 6.5008875,8.9882834 5.7725513,9.1677943 5.2524235,9.2959888 5.1115495,9.352381 4.9712142,9.4885717 4.8202457,9.6350816 4.7561125,9.7975911 4.7468315,10.057143 c -0.010202,0.285302 0.043282,0.438967 0.2109694,0.606137 0.2486629,0.247895 0.508312,0.295839 0.9394489,0.173468 0.9942924,-0.282212 2.2411614,-0.412448 3.3256073,-0.347361 1.7517099,0.105134 3.2718299,0.515995 4.5386599,1.226718 0.175166,0.09827 0.364769,0.192024 0.42134,0.208338 0.162712,0.04692 0.393903,0.02189 0.561967,-0.06085 z m 1.068657,-2.9104069 c 0.180283,-0.082536 0.365097,-0.2642425 0.455465,-0.4478055 0.07063,-0.1434658 0.07387,-0.1618345 0.07288,-0.4134733 -0.0013,-0.3293267 -0.04835,-0.4659191 -0.226829,-0.658414 C 15.969611,7.2766944 15.757932,7.1475632 15.228254,6.8925525 13.861843,6.234701 12.297836,5.8361056 10.365714,5.6533093 9.7537166,5.5954087 7.9467157,5.5950034 7.36,5.652635 6.85616,5.7021262 6.2616784,5.7863483 5.8705323,5.8636526 5.4210802,5.9524805 4.8031867,6.1175378 4.6728331,6.1835929 4.3285166,6.3580713 4.1568631,6.6724875 4.1754032,7.0947307 c 0.00758,0.1725847 0.021057,0.2334976 0.078933,0.3566976 0.1175506,0.2502302 0.2753086,0.3949422 0.5269751,0.4833957 0.1546569,0.054358 0.4231134,0.058485 0.601546,0.00925 C 6.7117639,7.577376 8.1474142,7.4358715 9.68,7.5205262 c 2.009376,0.1109906 3.753277,0.5490029 5.085714,1.2773693 0.386757,0.2114174 0.458645,0.2340151 0.710563,0.2233619 0.162174,-0.00686 0.236094,-0.02178 0.337204,-0.068069 z"
     id="path264" />
</svg>
