<?xml version="1.0" encoding="UTF-8" standalone="no"?>
<svg
   enable-background="new 0 0 24 24"
   viewBox="0 0 24 24"
   version="1.1"
   id="svg358"
   sodipodi:docname="telegram(1).svg"
   inkscape:version="1.2 (56b05e47e7, 2022-06-09, custom)"
   xmlns:inkscape="http://www.inkscape.org/namespaces/inkscape"
   xmlns:sodipodi="http://sodipodi.sourceforge.net/DTD/sodipodi-0.dtd"
   xmlns="http://www.w3.org/2000/svg"
   xmlns:svg="http://www.w3.org/2000/svg">
  <defs
     id="defs362" />
  <sodipodi:namedview
     id="namedview360"
     pagecolor="#ffffff"
     bordercolor="#000000"
     borderopacity="0.25"
     inkscape:showpageshadow="2"
     inkscape:pageopacity="0.0"
     inkscape:pagecheckerboard="0"
     inkscape:deskcolor="#d1d1d1"
     showgrid="false"
     inkscape:zoom="36.458333"
     inkscape:cx="11.986286"
     inkscape:cy="12.027429"
     inkscape:window-width="1920"
     inkscape:window-height="1016"
     inkscape:window-x="1920"
     inkscape:window-y="147"
     inkscape:window-maximized="1"
     inkscape:current-layer="svg358" />
  <path
     d="m9.417 15.181-.397 5.584c.568 0 .814-.244 1.109-.537l2.663-2.545 5.518 4.041c1.012.564 1.725.267 1.998-.931l3.622-16.972.001-.001c.321-1.496-.541-2.081-1.527-1.714l-21.29 8.151c-1.453.564-1.431 1.374-.247 1.741l5.443 1.693 12.643-7.911c.595-.394 1.136-.176.691.218z"
     id="path356" />
  <path
     style="fill:#ffffff;stroke-width:0.0274286"
     d="m 19.062857,21.978859 c -0.140024,-0.01904 -0.375496,-0.09266 -0.548101,-0.171345 -0.09983,-0.04551 -1.263684,-0.880041 -2.945646,-2.112149 l -2.780604,-2.03691 -0.20911,0.20425 c -0.955422,0.933219 -2.7387712,2.611461 -2.8583935,2.689925 -0.1501544,0.09849 -0.3537825,0.16752 -0.5667168,0.192114 -0.064114,0.0074 -0.1165714,0.0029 -0.1165714,-0.0099 0,-0.01287 0.0864,-1.238694 0.192,-2.724045 0.1056,-1.485352 0.192,-2.725258 0.192,-2.755349 0,-0.0379 0.8996727,-0.862588 2.9279997,-2.68396 1.6104,-1.446088 3.93524,-3.5336375 5.16631,-4.6389994 1.23107,-1.1053621 2.252442,-2.0407658 2.269714,-2.0786748 0.08669,-0.1902635 6.67e-4,-0.2861318 -0.255841,-0.2851216 -0.303487,0.0012 0.652689,-0.578685 -8.750468,5.3067888 C 8.3506286,12.395636 6.343751,13.644868 6.3197008,13.651512 6.2591391,13.668242 0.81415639,11.97374 0.57179616,11.86274 0.24983575,11.715282 0.01371429,11.454311 0.01371429,11.245926 c 0,-0.287076 0.30724734,-0.602991 0.82482168,-0.848092 C 1.0829444,10.282093 22.403474,2.1144712 22.614857,2.0556041 c 0.201145,-0.056016 0.536325,-0.042174 0.726007,0.029981 0.428748,0.1630957 0.671755,0.6449915 0.635738,1.2607003 -0.01172,0.2003362 -0.437281,2.2388231 -1.840937,8.8182856 -1.004132,4.706743 -1.85622,8.665805 -1.893529,8.797915 -0.176073,0.62347 -0.508994,0.970782 -0.973565,1.015646 -0.06789,0.0066 -0.160457,0.0069 -0.205714,7.27e-4 z"
     id="path364" />
</svg>
