<?xml version="1.0" encoding="UTF-8" standalone="no"?>
<svg
   data-name="Layer 1"
   viewBox="0 0 29 29"
   version="1.1"
   id="svg27"
   sodipodi:docname="theme.svg"
   inkscape:version="1.2 (56b05e47e7, 2022-06-09, custom)"
   xmlns:inkscape="http://www.inkscape.org/namespaces/inkscape"
   xmlns:sodipodi="http://sodipodi.sourceforge.net/DTD/sodipodi-0.dtd"
   xmlns="http://www.w3.org/2000/svg"
   xmlns:svg="http://www.w3.org/2000/svg">
  <defs
     id="defs31" />
  <sodipodi:namedview
     id="namedview29"
     pagecolor="#ffffff"
     bordercolor="#000000"
     borderopacity="0.25"
     inkscape:showpageshadow="2"
     inkscape:pageopacity="0.0"
     inkscape:pagecheckerboard="0"
     inkscape:deskcolor="#d1d1d1"
     showgrid="false"
     inkscape:zoom="28.034483"
     inkscape:cx="14.482165"
     inkscape:cy="14.5"
     inkscape:window-width="1920"
     inkscape:window-height="1016"
     inkscape:window-x="1920"
     inkscape:window-y="147"
     inkscape:window-maximized="1"
     inkscape:current-layer="svg27" />
  <path
     d="M14.5,5A9.5,9.5,0,1,0,24,14.5,9.51081,9.51081,0,0,0,14.5,5ZM6,14.5a8.50377,8.50377,0,0,1,8-8.47467V22.97467A8.50377,8.50377,0,0,1,6,14.5Z"
     id="path25" />
  <path
     style="fill:#ffffff;stroke-width:0.0356704"
     d="M 13.50123,23.932913 C 11.308203,23.663959 9.3718373,22.743163 7.8527269,21.246891 5.0186665,18.455437 4.2300462,14.22042 5.8682013,10.589672 6.8498973,8.413876 8.6761123,6.6504384 10.897294,5.7334574 c 0.787164,-0.3249687 1.828638,-0.5847143 2.689378,-0.6707363 0.534609,-0.053428 1.800851,-0.023549 2.280326,0.053809 2.104489,0.339535 3.878656,1.2391479 5.346351,2.7109307 1.473961,1.4780666 2.383427,3.3237332 2.690332,5.4597472 0.08447,0.58792 0.08496,1.798859 9.59e-4,2.407749 -0.296748,2.151118 -1.237463,4.048319 -2.750315,5.54674 -1.417913,1.404388 -3.227427,2.309057 -5.283076,2.64128 -0.419104,0.06773 -1.960146,0.100203 -2.370018,0.04994 z m 0.499385,-9.42575 V 6.0069452 l -0.133764,0.011232 C 12.191453,6.1588543 10.714114,6.7142792 9.3769099,7.706229 8.9575189,8.017337 8.1930414,8.7564398 7.8642061,9.1687228 7.0469581,10.193361 6.4328011,11.484722 6.1769307,12.716482 6.0340732,13.404198 5.9960271,13.779293 5.9960271,14.5 c 0,1.363161 0.2701238,2.527123 0.8692023,3.745387 0.4613747,0.938236 0.9507618,1.608253 1.7250229,2.361722 1.4331487,1.394661 3.1765267,2.181402 5.2676817,2.377166 0.06866,0.0064 0.128859,0.01426 0.133763,0.0174 0.0049,0.0031 0.0089,-3.819389 0.0089,-8.494508 z"
     id="path206" />
</svg>
